<svg xmlns="http://www.w3.org/2000/svg" xmlns:xlink="http://www.w3.org/1999/xlink" width="500" zoomAndPan="magnify" viewBox="0 0 375 374.999991" height="500" preserveAspectRatio="xMidYMid meet" version="1.0"><defs><g/><clipPath id="id1"><path d="M 186.75 246.203125 L 213 246.203125 L 213 286.703125 L 186.75 286.703125 Z M 186.75 246.203125 " clip-rule="nonzero"/></clipPath></defs><g fill="#0a4c86" fill-opacity="1"><g transform="translate(115.957028, 283.484439)"><g><path d="M 16.277344 0.730469 C 23.839844 0.730469 30.101562 -3.078125 30.101562 -10.957031 C 30.101562 -19.144531 23.109375 -20.867188 17.582031 -22.277344 C 13.667969 -23.214844 10.539062 -24 10.539062 -26.554688 C 10.539062 -28.953125 13.09375 -30.050781 15.652344 -30.050781 C 18.625 -30.050781 21.234375 -28.589844 21.234375 -25.40625 L 29.007812 -25.40625 C 29.007812 -32.710938 24.257812 -37.195312 15.859375 -37.195312 C 7.773438 -37.195312 2.609375 -33.230469 2.609375 -26.242188 C 2.609375 -18.363281 9.285156 -16.746094 14.816406 -15.390625 C 18.78125 -14.503906 22.121094 -13.722656 22.121094 -10.851562 C 22.121094 -8.136719 19.199219 -6.574219 16.226562 -6.574219 C 12.992188 -6.574219 10.070312 -8.296875 10.070312 -11.789062 L 2.085938 -11.789062 C 2.085938 -3.964844 7.878906 0.730469 16.277344 0.730469 Z M 16.277344 0.730469 "/></g></g></g><g fill="#0a4c86" fill-opacity="1"><g transform="translate(148.244197, 283.484439)"><g><path d="M 18.207031 -36.519531 L 4.171875 -36.519531 L 4.171875 0 L 12.050781 0 L 12.050781 -11.375 L 18.207031 -11.375 C 25.5625 -11.375 31.09375 -16.746094 31.09375 -23.945312 C 31.09375 -31.144531 25.511719 -36.519531 18.207031 -36.519531 Z M 17.84375 -18.675781 L 12.050781 -18.675781 L 12.050781 -29.164062 L 17.84375 -29.164062 C 20.972656 -29.164062 23.109375 -26.972656 23.109375 -23.945312 C 23.109375 -20.921875 20.972656 -18.675781 17.84375 -18.675781 Z M 17.84375 -18.675781 "/></g></g></g><g fill="#5c6c7d" fill-opacity="1"><g transform="translate(180.67968, 283.484439)"><g/></g></g><g fill="#5c6c7d" fill-opacity="1"><g transform="translate(193.145969, 283.484439)"><g/></g></g><g fill="#5c6c7d" fill-opacity="1"><g transform="translate(205.612258, 283.484439)"><g/></g></g><g fill="#0a4c86" fill-opacity="1"><g transform="translate(218.074213, 283.484439)"><g><path d="M 29.320312 -36.519531 L 1.09375 -36.519531 L 1.09375 -29.164062 L 11.269531 -29.164062 L 11.269531 0 L 19.144531 0 L 19.144531 -29.164062 L 29.320312 -29.164062 Z M 29.320312 -36.519531 "/></g></g></g><g clip-path="url(#id1)"><path fill="#1a2252" d="M 213 259.421875 C 213 252.136719 207.125 246.230469 199.875 246.230469 C 192.628906 246.230469 186.75 252.136719 186.75 259.421875 C 186.75 259.550781 186.765625 259.679688 186.769531 259.808594 C 186.769531 259.8125 186.761719 259.8125 186.761719 259.8125 C 186.761719 260.105469 186.78125 260.414062 186.816406 260.730469 C 186.820312 260.789062 186.832031 260.84375 186.832031 260.902344 C 186.867188 261.171875 186.910156 261.453125 186.964844 261.738281 C 186.996094 261.9375 187.03125 262.136719 187.078125 262.332031 C 189.082031 271.273438 199.871094 286.675781 199.871094 286.675781 C 199.871094 286.675781 209.558594 272.574219 212.289062 263.679688 C 212.503906 263.035156 212.671875 262.371094 212.789062 261.691406 C 212.917969 261.011719 213 260.382812 213 259.8125 C 213 259.769531 212.984375 259.730469 212.984375 259.691406 C 212.984375 259.601562 213 259.511719 213 259.421875 Z M 199.875 266.304688 C 196.035156 266.304688 192.925781 263.179688 192.925781 259.324219 C 192.925781 255.46875 196.035156 252.339844 199.875 252.339844 C 203.710938 252.339844 206.824219 255.464844 206.824219 259.324219 C 206.824219 263.179688 203.710938 266.304688 199.875 266.304688 Z M 199.875 266.304688 " fill-opacity="1" fill-rule="nonzero"/></g><g fill="#1a2252" fill-opacity="1"><g transform="translate(122.826495, 242.84187)"><g><path d="M 7.320312 -9.796875 L 7.320312 -3.820312 L 3.023438 -9.796875 L 1.121094 -9.796875 L 1.121094 0 L 3.191406 0 L 3.191406 -6.117188 L 7.628906 0 L 9.40625 0 L 9.40625 -9.796875 Z M 7.320312 -9.796875 "/></g></g></g><g fill="#1a2252" fill-opacity="1"><g transform="translate(140.71256, 242.84187)"><g><path d="M 3.234375 -1.960938 L 3.234375 -3.972656 L 6.632812 -3.972656 L 6.632812 -5.890625 L 3.234375 -5.890625 L 3.234375 -7.835938 L 6.996094 -7.835938 L 6.996094 -9.796875 L 1.121094 -9.796875 L 1.121094 0 L 7.152344 0 L 7.152344 -1.960938 Z M 3.234375 -1.960938 "/></g></g></g><g fill="#1a2252" fill-opacity="1"><g transform="translate(155.89813, 242.84187)"><g><path d="M 8.703125 0 L 5.640625 -5.050781 L 8.453125 -9.796875 L 6.128906 -9.796875 L 4.367188 -6.773438 L 2.617188 -9.796875 L 0.238281 -9.796875 L 3.09375 -5.136719 L 0.0429688 0 L 2.433594 0 L 4.394531 -3.359375 L 6.324219 0 Z M 8.703125 0 "/></g></g></g><g fill="#1a2252" fill-opacity="1"><g transform="translate(172.007178, 242.84187)"><g><path d="M 7.863281 -9.796875 L 0.292969 -9.796875 L 0.292969 -7.824219 L 3.023438 -7.824219 L 3.023438 0 L 5.136719 0 L 5.136719 -7.824219 L 7.863281 -7.824219 Z M 7.863281 -9.796875 "/></g></g></g></svg>